<svg width="15" height="15" viewBox="0 0 15 15" fill="none" xmlns="http://www.w3.org/2000/svg">
<path d="M0.848251 9.33392L9.33353 0.848602" stroke="#333333" stroke-width="0.8"/>
<path d="M9.33391 2.54558C9.80254 2.07695 9.80254 1.31715 9.33391 0.848523C8.86528 0.379894 8.10548 0.379894 7.63685 0.848524C7.16822 1.31715 7.16822 2.07695 7.63685 2.54558C8.10548 3.01421 8.86528 3.01421 9.33391 2.54558Z" fill="white" stroke="#333333" stroke-width="0.8"/>
<path d="M2.54559 9.33391C3.01421 8.86528 3.01421 8.10548 2.54559 7.63685C2.07696 7.16822 1.31716 7.16822 0.848529 7.63685C0.379899 8.10548 0.379899 8.86528 0.848528 9.33391C1.31716 9.80254 2.07696 9.80254 2.54559 9.33391Z" fill="white" stroke="#333333" stroke-width="0.8"/>
<path d="M4.46065 5.96437C4.01997 4.96266 5.04053 3.94221 6.04225 4.38277L13.3337 7.59179C14.3974 8.06011 14.2407 9.61547 13.1051 9.86227L10.7572 10.3728C10.6041 10.406 10.4844 10.5257 10.4511 10.6788L9.94073 13.0266C9.69393 14.1624 8.13809 14.3194 7.66969 13.2559L4.46065 5.96437Z" stroke="#FCFCFC" stroke-width="0.8"/>
<path d="M4.76937 5.82171L7.91721 13.0595C8.22489 13.767 9.25689 13.672 9.43033 12.9203L9.97241 10.5715C10.0412 10.2734 10.2739 10.0407 10.572 9.97187L12.9208 9.42979C13.6725 9.25635 13.7675 8.22435 13.06 7.91667L5.82204 4.76901C5.15597 4.47935 4.47969 5.15565 4.76937 5.82171Z" fill="#FCFCFC" stroke="#333333" stroke-width="0.8"/>
</svg>
