<svg width="16" height="22" viewBox="0 0 16 22" fill="none" xmlns="http://www.w3.org/2000/svg">
<path d="M15.7118 7.42582L8.99528 1.34672C8.08076 0.517105 6.91137 0.000739166 5.50211 0.000739166C2.90847 -0.0421721 0.539717 1.78871 0.0749607 4.07731C0.0149921 4.37769 0 4.67807 0 4.96414V7.73907C0 8.86907 0.464757 10.0849 1.5292 11.1148L5.98186 15.034C6.38665 15.4059 7.03131 15.3916 7.37613 15.0054C7.72095 14.6478 7.69096 14.0756 7.31616 13.6894L3.17833 9.94185C2.48869 9.31248 2.11389 8.55439 2.11389 7.62464V4.94984C2.11389 3.47655 3.44819 1.81732 5.39717 1.81732C5.89191 1.81732 6.35667 1.91744 6.88139 2.17491C5.63704 2.5325 3.89795 3.86275 3.88296 6.3087C3.88296 7.38148 4.27276 8.38274 5.11232 9.384L9.22016 13.4749C9.59497 13.8325 9.78986 14.4189 9.77487 14.9911C9.75988 16.2641 8.86035 17.5944 7.25619 17.6659C6.85141 17.6659 6.4766 17.5228 6.25172 17.3226L1.81405 13.1173C1.42425 12.7597 0.779591 12.6739 0.359811 13.0601C-0.029984 13.4034 -0.029984 14.0327 0.359811 14.4189L6.98633 20.5266C7.84089 21.299 8.98029 21.9713 10.6144 21.9999C13.283 22.0142 15.9216 20.1404 15.9516 17.0651V14.3188C15.9516 13.0315 15.4719 11.9301 14.6473 11.0003L10.3146 7.12401C9.75988 6.66629 9.25015 6.3373 8.71043 6.6949C8.29065 6.98097 8.17071 7.66755 8.66545 8.19679L12.8483 12.0445C13.373 12.5022 13.8227 13.1316 13.8527 14.0327V16.965C13.8527 18.5956 12.4884 20.1118 10.5994 20.1118C10.0747 20.1118 9.57997 19.9974 9.08523 19.7542C10.5994 19.3251 12.0687 17.8232 12.0687 15.5489C12.0687 14.2187 11.469 13.1459 10.5994 12.2161L6.76145 8.41135C6.37166 8.03945 6.08681 7.41009 6.23673 6.26578C6.44662 5.39326 7.15125 4.33478 8.62048 4.26326C9.04026 4.26326 9.40007 4.37769 9.66993 4.59225L14.2425 8.82616C14.4374 8.9835 14.6323 9.14084 15.0221 9.15514C15.8617 9.18375 16.3414 8.19679 15.7118 7.4816V7.42439V7.42582Z" fill="black"/>
</svg>
