<svg width="106" height="24" viewBox="0 0 106 24" fill="none" xmlns="http://www.w3.org/2000/svg">
<path d="M10.1638 13.7349L5.81898 9.61312C5.22739 9.05062 4.47092 8.70051 3.55928 8.70051C1.88147 8.67142 0.349139 9.9128 0.0484915 11.4645C0.0096983 11.6682 0 11.8719 0 12.0658V13.9473C0 14.7135 0.300648 15.5378 0.989227 16.2361L3.86962 18.8934C4.13148 19.1456 4.5485 19.1359 4.77156 18.874C4.99463 18.6316 4.97523 18.2436 4.73277 17.9818L2.05604 15.4408C1.60992 15.0141 1.36746 14.5001 1.36746 13.8697V12.0561C1.36746 11.0572 2.23061 9.9322 3.49139 9.9322C3.81143 9.9322 4.11208 10.0001 4.45152 10.1747C3.64656 10.4171 2.52156 11.3191 2.51186 12.9775C2.51186 13.7048 2.76402 14.3837 3.30712 15.0626L5.96446 17.8363C6.20691 18.0788 6.33299 18.4764 6.32329 18.8643C6.31359 19.7275 5.7317 20.6294 4.69398 20.6779C4.43212 20.6779 4.18967 20.5809 4.04419 20.4452L1.1735 17.5939C0.921339 17.3514 0.504312 17.2932 0.232759 17.5551C-0.0193964 17.7878 -0.0193964 18.2145 0.232759 18.4764L4.51941 22.6176C5.07221 23.1413 5.80928 23.5971 6.8664 23.6165C8.59269 23.6262 10.2996 22.3557 10.319 20.2706V18.4085C10.319 17.5357 10.0086 16.7889 9.47524 16.1585L6.67243 13.5303C6.31359 13.2199 5.98385 12.9969 5.63471 13.2393C5.36316 13.4333 5.28557 13.8988 5.60562 14.2576L8.31145 16.8665C8.65089 17.1768 8.94183 17.6036 8.96123 18.2145V20.2027C8.96123 21.3083 8.07869 22.3363 6.8567 22.3363C6.51726 22.3363 6.19721 22.2587 5.87717 22.0939C6.8567 21.8029 7.80713 20.7846 7.80713 19.2426C7.80713 18.3406 7.4192 17.6133 6.8567 16.9829L4.37393 14.4031C4.12178 14.151 3.93751 13.7242 4.03449 12.9484C4.17027 12.3568 4.62609 11.6391 5.57652 11.5906C5.84808 11.5906 6.08084 11.6682 6.25541 11.8137L9.21339 14.6844C9.33947 14.791 9.46554 14.8977 9.7177 14.9074C10.2608 14.9268 10.5711 14.2576 10.1638 13.7727V13.7339V13.7349Z" fill="#333333"/>
<path d="M20.2617 12.8378C19.0698 12.8378 18.419 13.378 18.419 14.1093C18.387 14.9511 19.2298 15.3167 20.1987 15.5388L21.215 15.7929C23.1372 16.206 24.5677 17.1914 24.5833 19.0661C24.5677 21.1153 22.9627 22.4343 20.2297 22.4343C17.4967 22.4343 15.7811 21.1793 15.718 18.78H17.9739C18.0689 19.9079 18.9592 20.4636 20.1977 20.4636C21.4362 20.4636 22.2159 19.9079 22.2314 19.0651C22.2159 18.3028 21.5322 17.9372 20.2927 17.6356L19.0853 17.3495C17.1786 16.8723 16.0187 15.9354 16.0032 14.2673C16.0032 12.2501 17.8148 10.8836 20.2607 10.8991C22.7551 10.8836 24.3912 12.2656 24.4232 14.2673H22.1674C22.1034 13.3615 21.3886 12.8378 20.2607 12.8378H20.2617Z" fill="#333333"/>
<path d="M26.2834 11.0262H28.5712V17.0633H28.6983L31.4623 13.8542H34.0992L30.9376 17.5085L34.2583 22.2752H31.5573L29.222 18.8595L28.5702 19.6062V22.2752H26.2824V11.0262H26.2834Z" fill="#333333"/>
<path d="M34.6879 18.1127C34.7034 15.5068 36.3085 13.7436 38.7874 13.7281C40.9802 13.7436 42.7278 15.1421 42.7278 18.0177V18.6529H36.9767C36.9767 19.9244 37.7235 20.7187 38.9154 20.7187C39.6942 20.7187 40.2499 20.3695 40.472 19.8924H42.6647C42.3311 21.4334 40.9491 22.4343 38.8834 22.4343C36.2774 22.4343 34.7054 20.7662 34.6889 18.1127H34.6879ZM40.566 17.2224C40.5505 16.1895 39.8348 15.4593 38.8184 15.4428C37.738 15.4583 37.0068 16.2536 36.9757 17.2224H40.566Z" fill="#333333"/>
<path d="M48.8436 15.5698H47.255V19.7003C47.255 20.352 47.5886 20.5266 48.0493 20.5266C48.2879 20.5421 48.6845 20.5111 48.9706 20.4946V22.3062C48.7165 22.3382 48.3034 22.3858 47.7632 22.4013C46.0795 22.3858 44.9507 21.639 44.9672 19.9864V15.5698H43.7917V13.8542H44.9672V11.8204H47.255V13.8542H48.8436V15.5698Z" fill="#333333"/>
<path d="M50.0665 18.0807C50.082 15.5068 51.6551 13.7436 54.197 13.7271C56.3898 13.7427 57.8513 15.0141 57.9464 16.9363H55.7856C55.6585 16.11 55.1028 15.5378 54.229 15.5378C53.1331 15.5378 52.4018 16.4592 52.4174 18.0477C52.4018 19.6838 53.1321 20.6217 54.229 20.6217C55.0553 20.6217 55.643 20.1135 55.7856 19.2232H57.9464C57.8513 21.1299 56.4373 22.4323 54.229 22.4323C51.6231 22.4323 50.082 20.6527 50.0665 18.0788V18.0807Z" fill="#333333"/>
<path d="M61.9033 22.2752H59.6155V11.0262H61.8393V15.3157H61.9663C62.332 14.3469 63.1893 13.7426 64.4763 13.7271C66.2239 13.7426 67.3838 14.9191 67.3683 16.9043V22.2742H65.0805V17.3174C65.096 16.2691 64.5248 15.6493 63.5549 15.6328C62.6016 15.6484 61.9188 16.2846 61.9023 17.3805V22.2742L61.9033 22.2752Z" fill="#333333"/>
<path d="M69.4495 11.0262H73.8341C76.4081 11.0417 77.8696 12.6147 77.8696 14.8395C77.8696 17.0643 76.376 18.6209 73.8021 18.6209H71.7684V22.2752H69.4485V11.0262H69.4495ZM73.4219 16.7462C74.804 16.7307 75.4712 15.9519 75.4557 14.8395C75.4712 13.7116 74.804 12.9493 73.4219 12.9648H71.7694V16.7462H73.4219Z" fill="#333333"/>
<path d="M82.0651 17.3175L84.1619 17.2224V16.5552C84.1619 15.8239 83.6692 15.4273 82.8274 15.4108C82.0331 15.4263 81.5404 15.7764 81.4289 16.3641H79.2361C79.3631 14.8861 80.6501 13.7427 82.8904 13.7271C84.7176 13.7427 86.4497 14.569 86.4497 16.5872V22.2752H84.2889V21.0998H84.1939C83.7962 21.8941 83.0019 22.4343 81.747 22.4343C80.1419 22.4343 78.951 21.5925 78.951 19.9244C78.951 18.0342 80.46 17.43 82.0651 17.3184V17.3175ZM82.3822 20.8447C83.4471 20.8447 84.1774 20.1455 84.1619 19.2561V18.6519C83.8127 18.6675 82.8274 18.7159 82.4462 18.747C81.6519 18.8265 81.1437 19.2077 81.1437 19.8594C81.1437 20.5111 81.6684 20.8447 82.3832 20.8447H82.3822Z" fill="#333333"/>
<path d="M88.0858 18.0807C88.1013 15.5068 89.6744 13.7436 92.2163 13.7271C94.4091 13.7427 95.8706 15.0141 95.9657 16.9363H93.8049C93.6779 16.11 93.1221 15.5378 92.2483 15.5378C91.1524 15.5378 90.4212 16.4592 90.4367 18.0477C90.4212 19.6838 91.1515 20.6217 92.2483 20.6217C93.0746 20.6217 93.6623 20.1135 93.8049 19.2232H95.9657C95.8706 21.1299 94.4566 22.4323 92.2483 22.4323C89.6424 22.4323 88.1013 20.6527 88.0858 18.0788V18.0807Z" fill="#333333"/>
<path d="M97.6347 11.0262H99.9226V17.0633H100.05L102.814 13.8542H105.451L102.289 17.5085L105.61 22.2752H102.909L100.573 18.8595L99.9216 19.6062V22.2752H97.6338V11.0262H97.6347Z" fill="#333333"/>
</svg>
